<svg width="22" height="28" viewBox="0 0 22 28" fill="none" xmlns="http://www.w3.org/2000/svg">
<path d="M10.9997 0.881653C5.39967 0.881653 0.333008 5.17499 0.333008 11.815C0.333008 16.055 3.59967 21.0417 10.1197 26.7883C10.6263 27.2283 11.3863 27.2283 11.893 26.7883C18.3997 21.0417 21.6663 16.055 21.6663 11.815C21.6663 5.17499 16.5997 0.881653 10.9997 0.881653ZM10.9997 14.215C9.53301 14.215 8.33301 13.015 8.33301 11.5483C8.33301 10.0817 9.53301 8.88165 10.9997 8.88165C12.4663 8.88165 13.6663 10.0817 13.6663 11.5483C13.6663 13.015 12.4663 14.215 10.9997 14.215Z" fill="#FDAEA7"/>
</svg>
