<svg width="32" height="30" viewBox="0 0 32 30" fill="none" xmlns="http://www.w3.org/2000/svg">
<path d="M27.1413 12.3167L31.2746 8.18333L24.2079 1.11667L20.0746 5.25L27.1413 12.3167ZM17.7079 7.6L2.39128 22.9333V30H9.45794L24.7746 14.6833L17.7079 7.6ZM27.3913 24.1667C27.3913 27.8167 23.1579 30 19.0579 30C18.2579 30 17.3913 29.8833 17.3913 29.8833C17.3913 29.3167 17.3913 26.5 17.3913 26.5C17.3913 26.5 18.1579 26.6667 19.0579 26.6667C21.6246 26.6667 24.0579 25.45 24.0579 24.1667C24.0579 23.3833 23.2579 22.7167 22.0079 22.1667L24.4746 19.7C26.2579 20.75 27.3913 22.15 27.3913 24.1667ZM3.35794 17.25C1.74128 16.3167 0.724609 15.1 0.724609 13.3333C0.724609 10.3333 3.87461 8.95 6.65794 7.73333C8.37461 6.96667 10.7246 5.93333 10.7246 5C10.7246 4.31667 9.42461 3.33333 7.39128 3.33333C5.32461 3.33333 4.05794 4.35 4.05794 5H0.724609C0.724609 2.25 3.55794 0 7.39128 0C11.1246 0 14.0579 2.2 14.0579 5C14.0579 8.11667 10.8413 9.53333 7.99128 10.7833C6.42461 11.4667 4.05794 12.5 4.05794 13.3333C4.05794 13.85 4.77461 14.3333 5.84128 14.7667L3.35794 17.25Z" fill="#93ACF8"/>
</svg>
